<svg width="30" height="30" viewBox="0 0 30 30" fill="none" xmlns="http://www.w3.org/2000/svg">
<circle cx="15" cy="15" r="15" fill="black"/>
<g clip-path="url(#clip0_1778_51646)">
<path d="M17.8218 12.957C18.2361 12.957 18.5718 12.6212 18.5718 12.207C18.5718 11.7928 18.2361 11.457 17.8218 11.457C17.4076 11.457 17.0718 11.7928 17.0718 12.207C17.0718 12.6212 17.4076 12.957 17.8218 12.957Z" fill="#F3F4F8"/>
<path d="M14.5835 18.542C12.8601 18.542 11.4585 17.1404 11.4585 15.417C11.4585 13.6936 12.8601 12.292 14.5835 12.292C16.3069 12.292 17.7085 13.6936 17.7085 15.417C17.7085 17.1404 16.3069 18.542 14.5835 18.542ZM14.5835 13.8545C13.7218 13.8545 13.021 14.5553 13.021 15.417C13.021 16.2787 13.7218 16.9795 14.5835 16.9795C15.4452 16.9795 16.146 16.2787 16.146 15.417C16.146 14.5553 15.4452 13.8545 14.5835 13.8545Z" fill="#F3F4F8"/>
<path d="M17.7086 21.667H11.4586C9.85237 21.667 8.33362 20.1482 8.33362 18.542V12.292C8.33362 10.6857 9.85237 9.16699 11.4586 9.16699H17.7086C19.3149 9.16699 20.8336 10.6857 20.8336 12.292V18.542C20.8336 20.1482 19.3149 21.667 17.7086 21.667ZM11.4586 10.7295C10.7281 10.7295 9.89612 11.5615 9.89612 12.292V18.542C9.89612 19.2865 10.7141 20.1045 11.4586 20.1045H17.7086C18.4391 20.1045 19.2711 19.2725 19.2711 18.542V12.292C19.2711 11.5615 18.4391 10.7295 17.7086 10.7295H11.4586Z" fill="#F3F4F8"/>
</g>
<defs>
<clipPath id="clip0_1778_51646">
<rect width="12.5" height="12.5" fill="white" transform="translate(8.33356 9.16797)"/>
</clipPath>
</defs>
</svg>
