<svg width="31" height="30" viewBox="0 0 31 30" fill="none" xmlns="http://www.w3.org/2000/svg">
<circle cx="15.4286" cy="15" r="15" fill="black"/>
<circle cx="15.4286" cy="15" r="15" fill="black"/>
<path d="M20.8918 8.93848H9.97316C8.58135 8.93848 7.45004 10.0909 7.45004 11.5163V17.6274C7.45004 19.0528 8.58135 20.2052 9.97316 20.2052H13.7318L15.0119 22.3358C15.0119 22.3358 15.0268 22.3585 15.0566 22.3964C15.131 22.5253 15.2724 22.6163 15.4287 22.6163C15.585 22.6163 15.7265 22.5253 15.8009 22.3964C15.8307 22.3585 15.8455 22.3358 15.8455 22.3358L17.1257 20.2052H20.8843C22.2761 20.2052 23.4075 19.0528 23.4075 17.6274V11.5163C23.4149 10.0985 22.2836 8.93848 20.8918 8.93848Z" fill="white"/>
<path d="M10.9868 13.4201C10.9868 13.4201 10.5394 13.4201 10.1376 13.8143V12.2373H9.14436V16.3846H10.1528V16.0586C10.1528 16.0586 10.3878 16.4832 10.9868 16.4832C10.9868 16.4832 12.3894 16.4301 12.3894 14.9365C12.3894 14.9365 12.3364 13.4201 10.9868 13.4201ZM10.7669 15.6113C10.4105 15.6113 10.13 15.3232 10.13 14.9744C10.13 14.618 10.4181 14.3375 10.7669 14.3375C11.1232 14.3375 11.4038 14.6256 11.4038 14.9744C11.4038 15.3232 11.1232 15.6113 10.7669 15.6113Z" fill="black"/>
<path d="M12.7081 12.1387V13.1016C12.7081 13.1016 13.163 13.0788 13.163 13.928V16.3846H14.1259V13.7006C14.1259 13.7006 14.1638 12.1387 12.7081 12.1387Z" fill="black"/>
<path d="M16.4686 13.4336C16.4686 13.4336 14.8233 13.4336 14.8233 14.9727C14.8233 14.9727 14.7702 16.4891 16.4686 16.4891C16.4686 16.4891 18.1517 16.4891 18.1517 14.9727C18.1517 14.9651 18.2048 13.4336 16.4686 13.4336ZM16.4686 15.6096C16.1122 15.6096 15.8317 15.3215 15.8317 14.9727C15.8317 14.6164 16.1198 14.3358 16.4686 14.3358C16.8249 14.3358 17.1054 14.624 17.1054 14.9727C17.1054 15.3215 16.8173 15.6096 16.4686 15.6096Z" fill="black"/>
<path d="M20.8965 13.5325V13.813C20.8965 13.813 20.6084 13.4339 20.0625 13.4339C20.0625 13.4339 18.6522 13.3732 18.6522 14.9579C18.6522 14.9579 18.6371 16.4363 20.0246 16.4363C20.0246 16.4363 20.5856 16.4591 20.8965 16.0573V16.2923C20.8965 16.2923 20.9647 17.0202 20.2596 17.0202H20.017V17.8997H20.4037C20.4037 17.8997 21.8594 17.9148 21.8594 16.3454V13.54H20.8965V13.5325ZM20.2975 15.6099C19.9412 15.6099 19.6606 15.3218 19.6606 14.973C19.6606 14.6167 19.9488 14.3362 20.2975 14.3362C20.6539 14.3362 20.9344 14.6243 20.9344 14.973C20.942 15.3218 20.6539 15.6099 20.2975 15.6099Z" fill="black"/>
</svg>
