<svg width="31" height="30" viewBox="0 0 31 30" fill="none" xmlns="http://www.w3.org/2000/svg">
<circle cx="15.7143" cy="15" r="15" fill="black"/>
<path fill-rule="evenodd" clip-rule="evenodd" d="M20.4591 11.1064C20.9785 11.2447 21.3882 11.6497 21.5279 12.1634C21.7877 13.1017 21.7778 15.0575 21.7778 15.0575C21.7778 15.0575 21.7778 17.0034 21.5281 17.9418C21.3882 18.4555 20.9786 18.8604 20.4591 18.9987C19.51 19.2457 15.714 19.2457 15.714 19.2457C15.714 19.2457 11.9278 19.2457 10.9688 18.9889C10.4493 18.8506 10.0398 18.4456 9.8999 17.9319C9.65015 17.0034 9.65015 15.0477 9.65015 15.0477C9.65015 15.0477 9.65015 13.1017 9.8999 12.1634C10.0396 11.6497 10.4593 11.2348 10.9688 11.0966C11.9178 10.8496 15.7138 10.8496 15.7138 10.8496C15.7138 10.8496 19.51 10.8496 20.4591 11.1064ZM14.5054 13.2504V16.8458L17.6621 15.0481L14.5054 13.2504Z" fill="white"/>
</svg>
