<svg width="102" height="30" viewBox="0 0 102 30" fill="none" xmlns="http://www.w3.org/2000/svg">
<g clip-path="url(#clip0_1778_51671)">
<path d="M98.0484 30H3.60341C3.12896 30 2.65917 29.9068 2.22101 29.7255C1.78286 29.5443 1.38496 29.2787 1.05016 28.944C0.715356 28.6093 0.45024 28.2121 0.270026 27.7751C0.0898116 27.3381 -0.0019525 26.87 -2.71575e-09 26.3977V3.58763C-2.71575e-09 2.63614 0.379644 1.72362 1.05542 1.05081C1.73119 0.378008 2.64773 3.03809e-05 3.60341 3.03809e-05H98.0484C98.5229 -0.00191355 98.993 0.0894478 99.4319 0.268871C99.8708 0.448294 100.27 0.712247 100.606 1.04558C100.942 1.37891 101.209 1.77506 101.391 2.2113C101.573 2.64753 101.667 3.11525 101.667 3.58763V26.3977C101.667 27.3531 101.285 28.2694 100.607 28.9449C99.9284 29.6205 99.008 30 98.0484 30Z" fill="#A6A6A6"/>
<path d="M100.97 26.4567C100.97 26.8404 100.893 27.2202 100.743 27.5736C100.592 27.927 100.373 28.2468 100.096 28.5139C99.8193 28.7811 99.4916 28.9902 99.1322 29.1288C98.7728 29.2674 98.3891 29.3327 98.0039 29.3208H3.58859C2.83009 29.3023 2.10758 28.995 1.5697 28.4622C1.03183 27.9295 0.719493 27.2117 0.69696 26.4567V3.54328C0.720102 2.77561 1.04275 2.04713 1.59646 1.5124C2.15016 0.977663 2.89134 0.678759 3.66273 0.679105H98.0781C98.4633 0.667238 98.847 0.732551 99.2063 0.871166C99.5657 1.00978 99.8934 1.21887 100.17 1.48603C100.447 1.75318 100.667 2.07295 100.817 2.42635C100.967 2.77975 101.044 3.15958 101.044 3.54328V26.4567H100.97Z" fill="black"/>
<path d="M22.7178 14.8377C22.7345 14.1064 22.9329 13.3907 23.2951 12.7544C23.6574 12.118 24.1723 11.5809 24.7939 11.191C24.3966 10.6251 23.8719 10.1595 23.2616 9.83138C22.6514 9.50327 21.9726 9.32173 21.2794 9.30127C19.7965 9.13887 18.3137 10.1871 17.6019 10.1871C16.8901 10.1871 15.6741 9.31604 14.4137 9.34556C13.597 9.37706 12.8029 9.62133 12.1108 10.054C11.4186 10.4866 10.8526 11.0925 10.4692 11.8111C8.76387 14.7639 10.0392 19.0749 11.6703 21.4519C12.4859 22.6182 13.4498 23.9174 14.6361 23.8731C15.8224 23.8288 16.3266 23.0906 17.7946 23.0906C19.2627 23.0906 19.6927 23.8731 20.968 23.8436C22.2433 23.8141 23.1034 22.6625 23.9338 21.4962C24.5238 20.6666 24.9791 19.7499 25.2832 18.7796C24.5128 18.4477 23.8582 17.8964 23.4017 17.195C22.9452 16.4935 22.7073 15.6734 22.7178 14.8377Z" fill="white"/>
<path d="M20.3155 7.7359C21.0254 6.87519 21.3758 5.77576 21.2942 4.66504C20.199 4.79074 19.1897 5.31687 18.4619 6.14142C18.1053 6.54223 17.8324 7.00978 17.6593 7.51676C17.4861 8.02374 17.4162 8.55998 17.4536 9.09417C18.0025 9.09676 18.545 8.97596 19.0405 8.74079C19.536 8.50561 19.9719 8.16211 20.3155 7.7359Z" fill="white"/>
<path d="M40.4235 23.6218H38.7181L37.7839 20.669H34.5216L33.6318 23.6218H31.971L35.1889 13.6562H37.1908L40.4235 23.6218ZM37.4577 19.4732L36.6124 16.86C36.5235 16.5942 36.3455 15.9742 36.0934 14.985C35.9896 15.4131 35.8265 16.0332 35.6041 16.86L34.7737 19.4732H37.4577Z" fill="white"/>
<path d="M48.7276 19.9462C48.7973 21.022 48.4406 22.0821 47.7341 22.899C47.4508 23.2032 47.1063 23.4446 46.7231 23.6074C46.3398 23.7702 45.9264 23.8508 45.5098 23.8439C45.1078 23.8762 44.7046 23.7983 44.3438 23.6187C43.9831 23.4392 43.6786 23.1647 43.4634 22.8252V26.5752H41.8322V18.8094C41.8322 18.0269 41.8322 17.2444 41.8322 16.4324H43.241L43.3299 17.5692C43.5742 17.2003 43.9014 16.893 44.2855 16.6715C44.6696 16.4501 45.1002 16.3207 45.5432 16.2935C45.9862 16.2663 46.4295 16.342 46.8381 16.5148C47.2466 16.6875 47.6092 16.9525 47.8972 17.2887C48.4869 18.0458 48.7819 18.9897 48.7276 19.9462ZM47.0816 19.9462C47.11 19.3304 46.9441 18.7212 46.6071 18.2041C46.4541 17.9781 46.2459 17.7945 46.0021 17.6706C45.7582 17.5466 45.4868 17.4864 45.2132 17.4954C44.8161 17.4952 44.4321 17.6366 44.1307 17.894C43.8162 18.1623 43.5976 18.525 43.5079 18.9275C43.4657 19.0868 43.4409 19.2501 43.4337 19.4147V20.6696C43.4253 21.1551 43.5939 21.6272 43.9083 21.9984C44.0853 22.1795 44.2996 22.3204 44.5364 22.4115C44.7731 22.5026 45.0269 22.5418 45.2802 22.5264C45.5336 22.511 45.7807 22.4413 46.0046 22.3222C46.2284 22.203 46.4238 22.0372 46.5775 21.836C46.9433 21.2976 47.1205 20.6541 47.0816 20.0053V19.9462Z" fill="white"/>
<path d="M57.0318 19.9457C57.0703 20.4788 57.0024 21.0143 56.8319 21.5211C56.6613 22.0279 56.3916 22.496 56.0383 22.8985C55.7567 23.2008 55.4146 23.4411 55.034 23.6039C54.6535 23.7666 54.2429 23.8482 53.8288 23.8433C53.4248 23.8751 53.0197 23.7972 52.6567 23.6178C52.2937 23.4384 51.9864 23.1643 51.7676 22.8246V26.5746H50.1364V18.8089C50.1364 18.0264 50.1364 17.2439 50.1364 16.4319H51.5451L51.6341 17.5687C51.8783 17.15 52.2322 16.8052 52.6579 16.5712C53.0836 16.3372 53.5652 16.2227 54.0512 16.24C54.4599 16.2374 54.864 16.3263 55.2336 16.5C55.6032 16.6738 55.9289 16.928 56.1866 17.2439C56.787 18.0132 57.0873 18.973 57.0318 19.9457ZM55.4006 19.9457C55.3946 19.3443 55.2087 18.7584 54.8668 18.2626C54.7313 18.0717 54.5573 17.911 54.3559 17.7907C54.1545 17.6705 53.9302 17.5933 53.6972 17.5641C53.4642 17.535 53.2277 17.5544 53.0027 17.6213C52.7777 17.6882 52.5692 17.801 52.3904 17.9526C52.0669 18.2157 51.8423 18.5799 51.7527 18.9861C51.7354 19.148 51.7354 19.3113 51.7527 19.4733V20.6691C51.7428 21.1574 51.9175 21.6317 52.2421 21.9979C52.401 22.1721 52.596 22.3098 52.8136 22.4016C53.0312 22.4934 53.2663 22.537 53.5025 22.5294C53.7887 22.5498 54.0753 22.4967 54.335 22.3752C54.5946 22.2537 54.8186 22.0678 54.9854 21.8355C55.3201 21.2864 55.4659 20.6437 55.4006 20.0048V19.9457Z" fill="white"/>
<path d="M66.3295 20.8317C66.342 21.2201 66.2688 21.6064 66.115 21.9635C65.9613 22.3206 65.7308 22.6398 65.4398 22.8987C64.6742 23.5232 63.6988 23.8346 62.7112 23.7697C61.8045 23.8136 60.9041 23.5985 60.1162 23.1496L60.4869 21.8209C61.1829 22.2445 61.9845 22.4645 62.8002 22.4557C63.3261 22.4998 63.8509 22.3588 64.2831 22.0571C64.4394 21.9204 64.5651 21.7525 64.652 21.5643C64.7388 21.3761 64.7849 21.1717 64.7873 20.9646C64.7896 20.5794 64.6406 20.2085 64.3721 19.9311C63.9629 19.5862 63.4891 19.3253 62.9782 19.1634C61.2284 18.5138 60.3535 17.5542 60.3535 16.2993C60.3451 15.9173 60.4235 15.5383 60.5826 15.1907C60.7418 14.843 60.9778 14.5356 61.2728 14.2914C61.968 13.7365 62.845 13.4578 63.7344 13.5089C64.5183 13.4778 65.2976 13.6401 66.0032 13.9813L65.6029 15.2806C65.0034 14.9365 64.3225 14.7581 63.6306 14.7638C63.1497 14.732 62.674 14.8793 62.296 15.1772C62.1681 15.2898 62.0662 15.4285 61.9971 15.584C61.928 15.7394 61.8934 15.9078 61.8957 16.0778C61.8927 16.2643 61.9326 16.4491 62.0123 16.618C62.0919 16.7868 62.2093 16.9353 62.3554 17.0522C62.8022 17.3901 63.3037 17.6498 63.8382 17.8199C64.5565 18.079 65.2057 18.4982 65.7363 19.0453C66.1565 19.5432 66.3688 20.1826 66.3295 20.8317Z" fill="white"/>
<path d="M71.6382 17.6278H69.8736V21.1268C69.8736 22.0126 70.185 22.4555 70.8078 22.4555C71.0474 22.4652 71.2871 22.4403 71.5196 22.3817V23.5924C71.1179 23.7231 70.6964 23.783 70.274 23.7695C70.0002 23.7814 69.7269 23.7363 69.4716 23.6372C69.2163 23.538 68.9845 23.387 68.7911 23.1937C68.3823 22.6354 68.1925 21.9476 68.2572 21.2597V17.6278H67.2044V16.4319H68.2572V15.1179L69.8439 14.6455V16.4319H71.6086L71.6382 17.6278Z" fill="white"/>
<path d="M79.6162 19.975C79.6592 20.9679 79.3197 21.9396 78.6671 22.6916C78.3346 23.0554 77.9258 23.3418 77.4696 23.5306C77.0134 23.7195 76.5211 23.806 76.0276 23.7841C75.5532 23.8085 75.0793 23.727 74.6406 23.5457C74.2018 23.3643 73.8094 23.0876 73.4918 22.7359C72.8452 22.0097 72.5052 21.0629 72.5428 20.0931C72.5017 19.0865 72.8523 18.1028 73.5215 17.3471C73.8516 16.9834 74.2575 16.6958 74.7109 16.5046C75.1643 16.3133 75.6541 16.2229 76.1462 16.2398C76.6221 16.2214 77.0963 16.3055 77.5366 16.4864C77.9768 16.6673 78.3725 16.9408 78.6968 17.288C79.3436 18.0299 79.6736 18.9942 79.6162 19.975ZM77.9553 19.975C77.97 19.3806 77.8213 18.7936 77.5253 18.2772C77.3908 17.9993 77.1803 17.7649 76.918 17.6008C76.6557 17.4367 76.3522 17.3497 76.0424 17.3497C75.7326 17.3497 75.4291 17.4367 75.1668 17.6008C74.9045 17.7649 74.694 17.9993 74.5595 18.2772C74.2674 18.8038 74.1142 19.3956 74.1142 19.9972C74.1142 20.5988 74.2674 21.1905 74.5595 21.7172C74.694 21.995 74.9045 22.2295 75.1668 22.3935C75.4291 22.5576 75.7326 22.6447 76.0424 22.6447C76.3522 22.6447 76.6557 22.5576 76.918 22.3935C77.1803 22.2295 77.3908 21.995 77.5253 21.7172C77.8213 21.2008 77.97 20.6137 77.9553 20.0193V19.975Z" fill="white"/>
<path d="M84.8359 17.8344C84.6682 17.8184 84.4994 17.8184 84.3317 17.8344C84.0778 17.8199 83.8244 17.8707 83.5959 17.9818C83.3673 18.093 83.1714 18.2609 83.0268 18.4692C82.7386 18.9062 82.5983 19.4236 82.6264 19.9456V23.6218H81.0249V18.7054C81.0249 17.8639 81.0249 17.111 81.0249 16.4318H82.4188V17.8048C82.5685 17.3562 82.8469 16.961 83.2196 16.668C83.5547 16.4217 83.9596 16.2873 84.3762 16.2842H84.7766L84.8359 17.8344Z" fill="white"/>
<path d="M92.0279 19.6951C92.0457 19.9359 92.0457 20.1777 92.0279 20.4185H87.1492C87.1377 20.7237 87.1942 21.0276 87.3147 21.3084C87.4352 21.5892 87.6167 21.8399 87.8462 22.0426C88.2923 22.393 88.8504 22.5712 89.418 22.5445C90.0902 22.5384 90.7548 22.403 91.3754 22.1459L91.6275 23.2532C90.8555 23.5635 90.028 23.7142 89.1956 23.6961C88.712 23.7227 88.2281 23.6499 87.774 23.4823C87.3199 23.3146 86.9053 23.0557 86.5561 22.7217C86.2284 22.3662 85.9746 21.9496 85.8092 21.4961C85.6438 21.0426 85.57 20.561 85.5922 20.079C85.5539 19.0944 85.8753 18.1293 86.4968 17.3624C86.7959 16.9993 87.1747 16.7094 87.604 16.5149C88.0333 16.3203 88.5017 16.2264 88.9732 16.2404C89.4323 16.2152 89.8903 16.3078 90.3032 16.5095C90.7161 16.7111 91.07 17.015 91.331 17.392C91.8014 18.0673 92.0453 18.8734 92.0279 19.6951ZM90.545 19.2817C90.5696 18.8465 90.461 18.4141 90.2336 18.0416C90.1031 17.8247 89.915 17.6478 89.6899 17.5306C89.4649 17.4134 89.2117 17.3603 88.9583 17.3772C88.708 17.3694 88.4597 17.4249 88.2367 17.5385C88.0137 17.6521 87.8232 17.8201 87.6831 18.0268C87.4087 18.3919 87.2441 18.8271 87.2085 19.2817H90.545Z" fill="white"/>
<path d="M36.9684 7.51517C36.9955 7.88611 36.9376 8.25833 36.7988 8.60365C36.6601 8.94898 36.4442 9.25833 36.1676 9.50828C35.5753 9.9501 34.8454 10.1697 34.1064 10.1284C33.6615 10.1284 33.276 10.1284 32.9497 10.1284V5.24155C33.4006 5.1676 33.8571 5.13302 34.314 5.1382C35.0075 5.0928 35.6951 5.29136 36.2566 5.69922C36.5022 5.93107 36.6933 6.21405 36.8164 6.52797C36.9394 6.84188 36.9913 7.17898 36.9684 7.51517ZM36.1379 7.51517C36.1552 7.27653 36.1234 7.03689 36.0443 6.81094C35.9653 6.585 35.8407 6.3775 35.6782 6.20119C35.4994 6.03757 35.2886 5.91246 35.0589 5.83371C34.8293 5.75496 34.5858 5.72425 34.3437 5.74352C34.1319 5.71815 33.9178 5.71815 33.706 5.74352V9.47875H34.2398C34.7366 9.50008 35.2217 9.32494 35.5893 8.99155C35.7755 8.79768 35.9201 8.56814 36.0145 8.31687C36.1088 8.06561 36.1508 7.79787 36.1379 7.52993V7.51517Z" fill="white"/>
<path d="M41.3874 8.28221C41.4036 8.77339 41.2343 9.25278 40.9128 9.62571C40.7472 9.80338 40.5446 9.94297 40.3192 10.0348C40.0939 10.1265 39.8511 10.1683 39.6079 10.1572C39.3751 10.1655 39.1433 10.1236 38.9283 10.0345C38.7133 9.94527 38.5202 9.81087 38.3623 9.64048C38.0477 9.28193 37.8832 8.81695 37.9026 8.34127C37.8833 7.84964 38.053 7.3692 38.3771 6.99776C38.5405 6.82125 38.7405 6.68227 38.9633 6.59048C39.1861 6.4987 39.4263 6.45631 39.6672 6.46627C39.9022 6.45777 40.1363 6.49949 40.3537 6.58862C40.5711 6.67775 40.7668 6.81223 40.9277 6.983C41.2383 7.3438 41.4023 7.80721 41.3874 8.28221ZM40.5569 8.28221C40.5738 7.98734 40.5015 7.6942 40.3493 7.44067C40.2828 7.31018 40.1808 7.20088 40.055 7.12519C39.9292 7.04951 39.7845 7.01047 39.6375 7.01253C39.489 7.01269 39.3433 7.05249 39.2155 7.1278C39.0877 7.2031 38.9825 7.31114 38.9109 7.44067C38.7679 7.7032 38.6964 7.9984 38.7033 8.29697C38.6983 8.59064 38.7698 8.8806 38.9109 9.13851C38.9832 9.26634 39.089 9.37228 39.2169 9.44506C39.3449 9.51785 39.4902 9.55477 39.6375 9.55189C39.7839 9.55066 39.9271 9.51026 40.0524 9.43493C40.1776 9.3596 40.2802 9.25212 40.3493 9.12375C40.4856 8.87459 40.557 8.59542 40.5569 8.31174V8.28221Z" fill="white"/>
<path d="M47.2892 6.54062L46.1919 10.0839H45.4653L45.0056 8.60754C44.8881 8.20482 44.794 7.79567 44.7238 7.38215C44.6547 7.773 44.5556 8.15799 44.4273 8.53373L43.9379 10.0101H43.2113L42.1733 6.4668H43.0037L43.4041 8.14987C43.5079 8.54849 43.582 8.93235 43.6562 9.28668C43.6562 8.9914 43.8045 8.60755 43.9379 8.16463L44.4866 6.54062H45.1391L45.6136 8.19416C45.7321 8.57664 45.8262 8.96619 45.8953 9.3605C45.8953 8.9914 46.0288 8.60755 46.1326 8.19416L46.5626 6.54062H47.2892Z" fill="white"/>
<path d="M51.382 10.084H50.5961V8.06136C50.5961 7.42652 50.3588 7.11648 49.8843 7.11648C49.7738 7.11301 49.664 7.13522 49.5636 7.18135C49.4632 7.22748 49.375 7.29625 49.306 7.38223C49.1682 7.55383 49.0948 7.76787 49.0984 7.98754V10.084H48.2976V7.55939C48.2976 7.24935 48.2976 6.90978 48.2976 6.54069H48.9352V7.10171C49.0292 6.92205 49.1734 6.77334 49.3504 6.67356C49.5623 6.53681 49.8098 6.46494 50.0622 6.46687C50.3709 6.46343 50.6688 6.57995 50.8926 6.79167C51.0345 6.94945 51.143 7.134 51.2118 7.33436C51.2806 7.53472 51.3082 7.74681 51.293 7.95801L51.382 10.084Z" fill="white"/>
<path d="M53.5618 10.0833H52.7759V4.91602H53.5618V10.0833Z" fill="white"/>
<path d="M58.2033 8.28221C58.2251 8.77165 58.061 9.25133 57.7436 9.62571C57.5779 9.80338 57.3754 9.94297 57.15 10.0348C56.9246 10.1265 56.6819 10.1683 56.4386 10.1572C56.2059 10.1655 55.9741 10.1236 55.7591 10.0345C55.5441 9.94527 55.351 9.81087 55.193 9.64048C54.8784 9.28193 54.7139 8.81695 54.7333 8.34127C54.7141 7.84964 54.8838 7.3692 55.2078 6.99776C55.3712 6.82125 55.5713 6.68227 55.7941 6.59048C56.0169 6.4987 56.2571 6.45631 56.498 6.46627C56.7329 6.45777 56.967 6.49949 57.1844 6.58862C57.4019 6.67775 57.5976 6.81223 57.7584 6.983C58.0637 7.34596 58.2223 7.80914 58.2033 8.28221ZM57.3877 8.28221C57.3928 7.98854 57.3212 7.69859 57.1801 7.44067C57.1135 7.31018 57.0116 7.20088 56.8857 7.12519C56.7599 7.04951 56.6153 7.01047 56.4683 7.01253C56.3198 7.01269 56.1741 7.05249 56.0463 7.1278C55.9185 7.2031 55.8133 7.31114 55.7417 7.44067C55.5987 7.7032 55.5271 7.9984 55.5341 8.29697C55.529 8.59064 55.6005 8.8806 55.7417 9.13851C55.814 9.26634 55.9197 9.37228 56.0477 9.44506C56.1756 9.51785 56.321 9.55477 56.4683 9.55189C56.6128 9.5512 56.7543 9.51088 56.8772 9.43534C57.0002 9.35981 57.0998 9.252 57.1653 9.12375C57.3132 8.87868 57.3902 8.59765 57.3877 8.31174V8.28221Z" fill="white"/>
<path d="M62.0291 10.0835H61.3173V9.67011C61.1971 9.82916 61.0397 9.95665 60.8589 10.0415C60.678 10.1264 60.4791 10.1662 60.2793 10.1573C60.1279 10.1648 59.9766 10.1397 59.8359 10.0836C59.6951 10.0276 59.5682 9.94193 59.4637 9.83252C59.2813 9.64149 59.1803 9.38747 59.182 9.12385C59.1742 8.92485 59.2212 8.7275 59.3179 8.55316C59.4146 8.37882 59.5573 8.23411 59.7307 8.13468C60.1843 7.88823 60.6973 7.77076 61.2135 7.79511C61.2261 7.69779 61.2158 7.59889 61.1835 7.50618C61.1512 7.41348 61.0977 7.3295 61.0273 7.26083C60.9569 7.19216 60.8714 7.14068 60.7777 7.11042C60.6839 7.08017 60.5844 7.07196 60.4869 7.08645C60.1558 7.07943 59.8302 7.17205 59.5527 7.3522L59.3154 6.77641C59.6821 6.5582 60.1045 6.45051 60.5314 6.46637C61.4508 6.46637 61.9253 6.95358 61.9253 7.94275V9.25673C61.9414 9.53431 61.9761 9.81051 62.0291 10.0835ZM61.2135 8.85811V8.31185C60.3386 8.31185 59.9086 8.54807 59.9086 9.03527C59.9023 9.11072 59.9123 9.18663 59.9379 9.25792C59.9634 9.32921 60.004 9.39424 60.0569 9.44866C60.1649 9.53811 60.302 9.58534 60.4424 9.58153C60.6156 9.58939 60.7853 9.53132 60.917 9.41913C61.0613 9.32308 61.1624 9.17479 61.1987 9.00574C61.2117 8.95766 61.2167 8.90779 61.2135 8.85811Z" fill="white"/>
<path d="M66.5074 10.0833H65.8105V9.50755C65.7073 9.71715 65.5433 9.89111 65.3398 10.0069C65.1362 10.1227 64.9024 10.1751 64.6687 10.1572C64.4661 10.1606 64.2655 10.117 64.0827 10.0299C63.9 9.94279 63.7401 9.81449 63.6158 9.65519C63.3207 9.28744 63.1681 8.82637 63.1858 8.35598C63.1599 7.85251 63.3239 7.35758 63.6455 6.96818C63.7828 6.81255 63.9514 6.68743 64.1405 6.60095C64.3295 6.51446 64.5348 6.46856 64.7428 6.46621C64.9377 6.44575 65.1345 6.48065 65.3103 6.56687C65.4861 6.65309 65.6338 6.78711 65.7363 6.95342V4.91602H66.5371V9.12369C66.4926 9.47802 66.4926 9.78806 66.5074 10.0833ZM65.6918 8.60696V8.01641C65.7007 7.93298 65.7007 7.84886 65.6918 7.76543C65.6496 7.58257 65.5511 7.4174 65.4101 7.29298C65.2631 7.16376 65.0722 7.09513 64.8763 7.10105C64.7413 7.09813 64.6076 7.12743 64.4863 7.18651C64.3651 7.24559 64.2598 7.33272 64.1793 7.44062C63.9995 7.7057 63.911 8.02175 63.9272 8.34121C63.9161 8.64413 63.999 8.9431 64.1645 9.19751C64.2458 9.30452 64.3512 9.39101 64.4723 9.44999C64.5934 9.50898 64.7267 9.53881 64.8614 9.53708C64.9799 9.54114 65.0977 9.51794 65.2058 9.46929C65.3138 9.42064 65.4091 9.34785 65.4842 9.25657C65.6296 9.06623 65.7031 8.83105 65.6918 8.5922V8.60696Z" fill="white"/>
<path d="M73.2694 8.28239C73.2857 8.77357 73.1163 9.25296 72.7949 9.6259C72.6292 9.80357 72.4266 9.94315 72.2013 10.0349C71.9759 10.1267 71.7332 10.1685 71.4899 10.1574C71.2572 10.1657 71.0254 10.1238 70.8104 10.0346C70.5954 9.94545 70.4023 9.81106 70.2443 9.64066C69.9361 9.27844 69.7725 8.81601 69.7846 8.34145C69.7654 7.84983 69.9351 7.36939 70.2591 6.99795C70.4225 6.82143 70.6226 6.68245 70.8454 6.59067C71.0682 6.49889 71.3083 6.4565 71.5492 6.46645C71.7845 6.45598 72.0191 6.4968 72.2369 6.58606C72.4546 6.67531 72.6501 6.81085 72.8097 6.98318C73.1204 7.34398 73.2843 7.80739 73.2694 8.28239ZM72.4538 8.28239C72.4619 7.98649 72.3847 7.69447 72.2314 7.44086C72.1713 7.29418 72.0687 7.16866 71.9366 7.08029C71.8045 6.99193 71.649 6.94474 71.4899 6.94474C71.3308 6.94474 71.1753 6.99193 71.0433 7.08029C70.9112 7.16866 70.8086 7.29418 70.7485 7.44086C70.5932 7.69906 70.516 7.99637 70.5261 8.29716C70.518 8.59306 70.5952 8.88508 70.7485 9.13869C70.8157 9.26757 70.9183 9.37482 71.0443 9.44799C71.1703 9.52116 71.3145 9.55725 71.4603 9.55208C71.6066 9.55084 71.7499 9.51044 71.8751 9.43511C72.0003 9.35978 72.1029 9.2523 72.1721 9.12393C72.3409 8.88509 72.4386 8.60361 72.4538 8.31192V8.28239Z" fill="white"/>
<path d="M77.5105 10.0839H76.7245V8.06129C76.7245 7.42644 76.4873 7.1164 75.9979 7.1164C75.8899 7.11522 75.783 7.13853 75.6854 7.18458C75.5878 7.23062 75.5019 7.29819 75.4344 7.38215C75.2853 7.54818 75.2057 7.7648 75.212 7.98747V10.0839H74.4261V7.55932C74.4261 7.24928 74.4261 6.90971 74.4261 6.54062H75.123V7.10164C75.2387 6.90719 75.4161 6.75657 75.6272 6.67349C75.8453 6.53858 76.097 6.46699 76.3538 6.4668C76.6374 6.47901 76.9066 6.59461 77.1101 6.7916C77.2599 6.94452 77.3747 7.128 77.4463 7.32937C77.518 7.53074 77.545 7.7452 77.5253 7.95794L77.5105 10.0839Z" fill="white"/>
<path d="M82.8192 7.13044H81.9443V8.85781C81.9443 9.30072 82.1074 9.52218 82.404 9.52218C82.5219 9.54046 82.642 9.54046 82.7599 9.52218V10.1275C82.5589 10.1921 82.3482 10.2221 82.1371 10.2161C82.0017 10.2223 81.8666 10.1991 81.7411 10.1481C81.6156 10.0971 81.5028 10.0195 81.4104 9.9208C81.2986 9.76992 81.2197 9.59738 81.1788 9.41431C81.1379 9.23123 81.136 9.04166 81.1732 8.85781V7.13044H80.6542V6.53989H81.1732V5.90505L81.9443 5.68359V6.55466H82.8192V7.13044Z" fill="white"/>
<path d="M87.0009 10.0833H86.2002V8.07546C86.2002 7.44062 85.9629 7.11582 85.4884 7.11582C85.2734 7.12726 85.0712 7.22142 84.9246 7.37843C84.7779 7.53543 84.6983 7.74301 84.7024 7.95735V10.0833H83.9165V4.91602H84.7024V7.05676C84.8099 6.87119 84.966 6.7182 85.1541 6.61418C85.3422 6.51015 85.5551 6.45901 85.7701 6.46621C86.0743 6.46349 86.3673 6.58018 86.5857 6.79102C86.728 6.95148 86.8367 7.1386 86.9054 7.3414C86.9742 7.54421 87.0016 7.75863 86.9861 7.97212L87.0009 10.0833Z" fill="white"/>
<path d="M91.3013 8.15009C91.3172 8.26767 91.3172 8.38684 91.3013 8.50442H88.9732C88.9666 8.65423 88.9938 8.8036 89.0528 8.94156C89.1119 9.07953 89.2012 9.20257 89.3142 9.30166C89.533 9.47409 89.8065 9.56309 90.0853 9.55265C90.4151 9.55657 90.7425 9.49639 91.0492 9.37548L91.1678 9.92174C90.7918 10.0757 90.388 10.1511 89.9815 10.1432C89.742 10.1562 89.5024 10.1196 89.2778 10.0358C89.0531 9.95193 88.8484 9.82261 88.6766 9.65599C88.5167 9.48096 88.3937 9.27583 88.3147 9.05269C88.2358 8.82955 88.2025 8.59293 88.2169 8.35678C88.1947 7.87674 88.3474 7.40486 88.6469 7.02804C88.7941 6.84189 88.9841 6.69373 89.2009 6.59608C89.4177 6.49844 89.6549 6.45417 89.8925 6.46702C90.117 6.45727 90.3404 6.50348 90.5424 6.60145C90.7443 6.69942 90.9186 6.84605 91.0492 7.02804C91.2438 7.36864 91.3316 7.75941 91.3013 8.15009ZM90.5598 7.9434C90.5805 7.75033 90.5444 7.55545 90.456 7.38237C90.3929 7.27588 90.3011 7.18906 90.1911 7.13168C90.0811 7.0743 89.9571 7.04863 89.8332 7.05757C89.7119 7.05453 89.5916 7.08121 89.483 7.13527C89.3744 7.18933 89.2808 7.26911 89.2104 7.36761C89.0712 7.54621 88.9885 7.7621 88.9732 7.98769L90.5598 7.9434Z" fill="white"/>
</g>
<defs>
<clipPath id="clip0_1778_51671">
<rect width="101.667" height="30" fill="white"/>
</clipPath>
</defs>
</svg>
