<?xml version="1.0" encoding="utf-8"?>
<!-- Generator: Adobe Illustrator 26.3.1, SVG Export Plug-In . SVG Version: 6.00 Build 0)  -->
<svg version="1.1" id="레이어_1" xmlns="http://www.w3.org/2000/svg" xmlns:xlink="http://www.w3.org/1999/xlink" x="0px"
	 y="0px" viewBox="0 0 27.2 27.2" style="enable-background:new 0 0 27.2 27.2;" xml:space="preserve">
<style type="text/css">
	.st0{fill:#FFFFFF;}
</style>
<circle cx="13.6" cy="13.6" r="13.6"/>
<circle cx="13.6" cy="58" r="13.6"/>
<g id="레이어_2_00000083790019304941149420000002222553155535327661_">
	<g id="레이어_1-2">
		<path class="st0" d="M21.1,16.5l-0.7-0.7h-0.1h-2.7l-0.1-0.1l-3.5-4v-0.3l5.2-2.9c0.1,0,0.1-0.1,0-0.1l-1.6-0.6h-0.1l-5.9,1.4
			h-0.2l-3.4-3L7.9,6.3L6.3,6.1L6.1,6.3l0.2,1.6l0.1,0.2l2.9,3.4v0.2l-1.4,5.9v0.1l0.6,1.6c0,0,0,0.1,0.1,0.1s0.1,0,0.1-0.1l2.9-5.2
			h0.3l4,3.5l0.1,0.1v2.6l0.1,0.2l0.7,0.7c0,0,0.1,0,0.1,0c0,0,0,0,0,0l1.2-3 M18,18.1l3-1.2c0.1-0.2,0.1-0.3,0.1-0.3L18,18.1z"/>
	</g>
</g>
<g id="Layer_2">
	<g id="Layer_1-2">
		<path class="st0" d="M21,57.1l-3.1-2.5c0,0-0.1-0.1-0.1-0.1h-2.8v-1.5c0-0.1-0.1-0.2-0.2-0.2H6.3c-0.1,0-0.2,0.1-0.2,0.2v8.4
			c0,0.1,0.1,0.2,0.2,0.2h0.8c0,1,0.8,1.8,1.8,1.8s1.8-0.8,1.8-1.8h6c0,1,0.8,1.8,1.8,1.8s1.8-0.8,1.8-1.8h0.8
			c0.1,0,0.2-0.1,0.2-0.2v-4.1C21.1,57.2,21.1,57.1,21,57.1z M8.9,62.4C8.4,62.4,8,62,8,61.5c0-0.5,0.4-0.9,0.9-0.9
			c0.5,0,0.9,0.4,0.9,0.9C9.7,62,9.3,62.4,8.9,62.4z M16,57.5c-0.1,0-0.2-0.1-0.2-0.2v-1.8c0-0.1,0.1-0.2,0.2-0.2h1.4
			c0,0,0.1,0,0.1,0.1l2.2,1.8c0.1,0.1,0.1,0.2,0,0.3c0,0.1-0.1,0.1-0.2,0.1L16,57.5z M18.3,62.4c-0.5,0-0.9-0.4-0.9-0.9
			c0-0.5,0.4-0.9,0.9-0.9s0.9,0.4,0.9,0.9C19.2,62,18.8,62.4,18.3,62.4z"/>
	</g>
</g>
</svg>
