<?xml version="1.0" encoding="utf-8"?>
<!-- Generator: Adobe Illustrator 26.3.1, SVG Export Plug-In . SVG Version: 6.00 Build 0)  -->
<svg version="1.1" id="레이어_1" xmlns="http://www.w3.org/2000/svg" xmlns:xlink="http://www.w3.org/1999/xlink" x="0px"
	 y="0px" viewBox="0 0 100 27.2" style="enable-background:new 0 0 100 27.2;" xml:space="preserve">
<style type="text/css">
	.st0{fill:#FFFFFF;}
	.st1{fill:#FF774B;}
</style>
<circle cx="13.6" cy="13.6" r="13.6"/>
<g id="레이어_2_00000083790019304941149420000002222553155535327661_">
	<g id="레이어_1-2">
		<path class="st0" d="M21.1,16.5l-0.7-0.7h-0.1h-2.7l-0.1-0.1l-3.5-4v-0.3l5.2-2.9c0.1,0,0.1-0.1,0-0.1l-1.6-0.6h-0.1l-5.9,1.4
			h-0.2l-3.4-3L7.9,6.3L6.3,6.1L6.1,6.3l0.2,1.6l0.1,0.2l2.9,3.4v0.2l-1.4,5.9v0.1l0.6,1.6c0,0,0,0.1,0.1,0.1s0.1,0,0.1-0.1l2.9-5.2
			h0.3l4,3.5l0.1,0.1v2.6l0.1,0.2l0.7,0.7c0,0,0.1,0,0.1,0c0,0,0,0,0,0l1.2-3 M18,18.1l3-1.2c0.1-0.2,0.1-0.3,0.1-0.3L18,18.1z"/>
	</g>
</g>
<rect x="34.1" class="st1" width="65.9" height="27.2"/>
<g>
	<path class="st0" d="M46.9,8.8c0.4,0.2,0.7,0.5,0.9,0.9c0.2,0.4,0.3,0.8,0.3,1.3c0,0.5-0.1,0.9-0.3,1.3c-0.2,0.4-0.5,0.7-0.9,0.9
		c-0.4,0.2-0.9,0.3-1.4,0.3c-0.5,0-1-0.1-1.4-0.3c-0.4-0.2-0.7-0.5-1-0.9c-0.2-0.4-0.3-0.8-0.3-1.3c0-0.5,0.1-0.9,0.3-1.3
		c0.2-0.4,0.5-0.7,1-0.9c0.4-0.2,0.9-0.3,1.4-0.3C46,8.5,46.5,8.6,46.9,8.8z M44.5,9.4C44.2,9.6,44,9.8,43.8,10
		c-0.2,0.3-0.2,0.6-0.2,0.9c0,0.3,0.1,0.6,0.2,0.9c0.2,0.3,0.4,0.5,0.7,0.6s0.6,0.2,1,0.2c0.4,0,0.7-0.1,1-0.2
		c0.3-0.2,0.5-0.4,0.7-0.6c0.2-0.3,0.3-0.6,0.3-0.9s-0.1-0.6-0.3-0.9c-0.2-0.3-0.4-0.5-0.7-0.6c-0.3-0.2-0.6-0.2-1-0.2
		C45.1,9.2,44.8,9.3,44.5,9.4z M51.1,18.2h-0.7v-3h-6.2v-0.6h6.9V18.2z M51.1,14.1h-0.7V7.9h0.7V14.1z"/>
	<path class="st0" d="M62.4,16.8h-9.5v-0.6h9.5V16.8z M57.3,11.4c-0.4,0.6-0.9,1.1-1.6,1.5c-0.6,0.4-1.3,0.7-1.9,0.9l-0.3-0.6
		c0.6-0.1,1.1-0.4,1.7-0.7s1.1-0.8,1.5-1.3c0.4-0.5,0.6-1.1,0.6-1.7V8.7h0.6v0.8C57.9,10.2,57.7,10.8,57.3,11.4z M58.6,11.1
		c0.4,0.5,0.9,1,1.5,1.3s1.2,0.6,1.8,0.7l-0.4,0.6c-0.6-0.2-1.3-0.4-1.9-0.9s-1.2-0.9-1.6-1.5c-0.4-0.6-0.6-1.3-0.6-2V8.7H58v0.8
		C58,10.1,58.2,10.6,58.6,11.1z"/>
	<path class="st0" d="M72.8,16.9h-9.5v-0.6h9.5V16.9z M71.8,9.6h-7.7V9h7.7V9.6z M71.8,14h-7.6v-0.6h7.6V14z M66.6,13.5h-0.7V9.6
		h0.7V13.5z M70.1,13.5h-0.7V9.6h0.7V13.5z"/>
	<path class="st0" d="M77.8,12.5h-3v2.8h-0.7v-3.4h3V9.7h-3V9.1h3.7V12.5z M76.1,15c0.4,0,0.8,0,1.3-0.1c0.4,0,0.9-0.1,1.4-0.2
		l0,0.6c-0.7,0.1-1.3,0.2-1.9,0.2c-0.6,0-1.3,0.1-2.1,0.1h-0.7V15h0.7C75.2,15,75.7,15,76.1,15z M80,12.3h-1.7v-0.6H80V12.3z
		 M80.4,17.7h-0.7V8.2h0.7V17.7z M82.5,18.2h-0.7V7.9h0.7V18.2z"/>
	<path class="st0" d="M93.5,16.8h-9.5v-0.6h9.5V16.8z M88.4,11.4C88,12,87.4,12.6,86.8,13c-0.6,0.4-1.3,0.7-1.9,0.9l-0.3-0.6
		c0.6-0.1,1.1-0.4,1.7-0.7s1.1-0.8,1.5-1.3c0.4-0.5,0.6-1.1,0.6-1.7V8.7H89v0.8C89,10.2,88.8,10.8,88.4,11.4z M89.7,11.1
		c0.4,0.5,0.9,1,1.5,1.3s1.2,0.6,1.8,0.7l-0.4,0.6c-0.6-0.2-1.3-0.4-1.9-0.9s-1.2-0.9-1.6-1.5c-0.4-0.6-0.6-1.3-0.6-2V8.7h0.6v0.8
		C89.1,10.1,89.3,10.6,89.7,11.1z"/>
</g>
</svg>
