<svg width="116" height="27" viewBox="0 0 116 27" fill="none" xmlns="http://www.w3.org/2000/svg">
<g clip-path="url(#clip0_1049_41379)">
<path d="M52.5154 0H29.2443V3.92455H52.5154V0Z" fill="#212223"/>
<path d="M43.1011 4.61511H38.6816V26.9885H43.1011V4.61511Z" fill="#212223"/>
<path d="M63.748 0H59.3286V27H63.748V0Z" fill="#212223"/>
<path d="M83.7161 0H79.2966V27H83.7161V0Z" fill="#212223"/>
<path d="M69.0997 0L78.5946 27H73.945L64.4386 0H69.0997Z" fill="#212223"/>
<path d="M22.9373 27H27.4718L18.5524 0H14.0869L22.9373 27Z" fill="#212223"/>
<path d="M13.3849 0H8.91944L0 27H4.53453L13.3849 0Z" fill="#212223"/>
<path d="M9.04608 15.4911L7.75708 19.4041H19.7149L18.4259 15.4911H9.04608Z" fill="#212223"/>
<path d="M104.674 27V16.3657L94.6036 0H89.5972L100.013 16.3657V27H104.674Z" fill="#212223"/>
<path d="M110.083 0L102.752 11.9118L105.088 15.7097L115.09 0H110.083Z" fill="#212223"/>
</g>
<defs>
<clipPath id="clip0_1049_41379">
<rect width="115.09" height="27" fill="white"/>
</clipPath>
</defs>
</svg>
