<?xml version="1.0" encoding="UTF-8"?><svg id="_이어_1" xmlns="http://www.w3.org/2000/svg" viewBox="0 0 47 47"><defs><style>.cls-1{fill:#fdfdfd;fill-rule:evenodd;}</style></defs><path d="M46.5,23.49321c0,12.70763-10.29889,23.00679-23.00018,23.00679S.5,36.20084,.5,23.49321C.5,10.79916,10.79889,.5,23.49982,.5s23.00018,10.29916,23.00018,22.99321Z"/><g><path class="cls-1" d="M19.98755,17.13828c.69846-.00936,1.32204,.17353,1.93841,.38907,.37755,.13129,.75007,.27194,1.13698,.37035,.69606,.16873,1.36884,.10777,2.03442-.15001,.47356-.1829,.94689-.37035,1.44397-.48292,1.49533-.34227,2.83609-.00456,4.041,.9188,.33267,.24866,.63054,.53452,.89528,.85327,.10777,.12193,.10321,.15001-.03744,.23906-1.24691,.75942-1.97826,1.87047-2.10499,3.32835-.12169,1.35947,.29547,2.55021,1.23995,3.54413,.4102,.43132,.89552,.75462,1.44157,.98912,.15481,.06097,.16177,.08449,.09625,.2345-.61181,1.41108-1.42285,2.71414-2.4307,3.8768-.34707,.39387-.74071,.75006-1.20947,1.00784-.73135,.40779-1.48621,.41259-2.24804,.08905-.31395-.13129-.61638-.29522-.93992-.40299-1.05225-.33291-2.08843-.29066-3.10804,.13105-.26714,.11257-.52973,.2345-.80167,.33291-.98433,.36579-1.87049,.14065-2.67672-.49684-.49228-.38907-.89528-.85783-1.26563-1.35947-.85328-1.15329-1.52606-2.405-1.98066-3.76447-.32595-.9704-.53213-1.96888-.58613-2.99545-.06313-1.12521,.02592-2.23626,.47596-3.28155,.71022-1.63141,1.91249-2.74247,3.63777-3.24411,.33747-.09841,.6843-.14065,1.00785-.12649Z"/><path class="cls-1" d="M27.36389,12.87217c-.00696,.96584-.30699,1.77687-.79927,2.51757-.56021,.83431-1.31964,1.41564-2.27828,1.72982-.29523,.09361-.59525,.14521-.90464,.14521-.12193,0-.16657-.0468-.1781-.16873-.07993-.70326,.07969-1.35947,.37491-1.98304,.58589-1.2421,1.5563-2.04857,2.83153-2.51253,.25778-.08905,.52037-.13609,.79231-.17833,.11473-.02328,.13825,.0516,.14521,.13609,.00936,.12193,.02808,.25322,.01632,.31395Z"/></g></svg>