<?xml version="1.0" encoding="UTF-8"?><svg id="_이어_1" xmlns="http://www.w3.org/2000/svg" viewBox="0 0 47 47"><defs><style>.cls-1{fill:#fae100;}.cls-2{fill:#371d1e;}</style></defs><path class="cls-1" d="M46.5,23.49321c0,12.70763-10.29889,23.00679-23.00018,23.00679S.5,36.20084,.5,23.49321C.5,10.79916,10.79889,.5,23.49982,.5s23.00018,10.29916,23.00018,22.99321Z"/><path class="cls-2" d="M23.50002,14.85375c-5.79908,0-10.50002,3.71606-10.50002,8.30085,0,2.98384,1.99157,5.59936,4.9813,7.06258-.21959,.81948-.79545,2.97012-.91042,3.42985-.1426,.57099,.20855,.56363,.43939,.41071,.18086-.12056,2.87701-1.95459,4.04054-2.74587,.63176,.09384,1.28312,.14335,1.94921,.14335,5.79903,0,10.49998-3.71606,10.49998-8.30061,0-4.58479-4.70095-8.30085-10.49998-8.30085"/></svg>