<?xml version="1.0" encoding="UTF-8"?><svg id="_이어_1" xmlns="http://www.w3.org/2000/svg" viewBox="0 0 222 44"><defs><style>.cls-1{fill:#007aff;}.cls-2{fill:#fff;fill-rule:evenodd;}</style></defs><rect class="cls-1" width="222" height="44" rx="3" ry="3"/><path class="cls-2" d="M25.78822,27.32906c0-1.6757-.00646-3.35141,.00601-5.02689,.00231-.28248-.07756-.37085-.36011-.35928-.52211,.02116-1.04569-.00223-1.56856,.00987-.21167,.00537-.28966-.05331-.28735-.27755,.01054-1.04545,.00952-2.09152,.0011-3.13724-.00193-.20113,.0587-.26729,.26203-.26278,.53461,.01231,1.07029-.01497,1.60388,.01148,.30925,.01516,.37332-.09473,.36685-.38174-.01867-.79568-.01867-1.59259-.0012-2.38837,.02125-.97186,.28207-1.8793,.86103-2.66957,.73258-1.00078,1.77413-1.45831,2.9757-1.51191,1.23408-.05481,2.47131-.02439,3.70687-.0377,.17229-.00196,.22366,.05962,.22292,.22708-.00553,1.05744-.00665,2.11528,.00075,3.1728,.00167,.1881-.05972,.24567-.24438,.24272-.5943-.00923-1.18861-.00469-1.78253-.00313-.79098,.00249-1.2644,.40937-1.31395,1.19231-.03973,.62767-.0107,1.25912-.0253,1.88864-.00537,.22423,.12792,.20889,.27633,.2087,.90301-.00139,1.80638,.00896,2.7094-.00646,.26506-.00462,.35249,.05637,.32218,.33541-.11367,1.05071-.21128,2.10345-.30131,3.15674-.0205,.23772-.12902,.28298-.34252,.27947-.71243-.011-1.42558-.00759-2.13857-.00306-.51205,.00306-.46231-.07502-.46231,.44721-.00241,3.27986-.00683,6.55987,.00722,9.83972,.00148,.34641-.08705,.43238-.42979,.42628-1.22376-.02256-2.44812-.02366-3.67192,.00057-.34486,.00683-.40162-.11019-.39892-.41777,.01312-1.65185,.00646-3.30353,.00646-4.95554Z"/></svg>