<?xml version="1.0" encoding="UTF-8"?><svg id="_이어_1" xmlns="http://www.w3.org/2000/svg" viewBox="0 0 222 44"><defs><style>.cls-1{fill:#fff;}.cls-2{fill:#2db400;}</style></defs><rect class="cls-2" width="222" height="44" rx="3" ry="3"/><path class="cls-1" d="M19.57816,13.76918c.01272,5.48791,.00414,10.97688,.00414,16.46487,2.05555,.01185,4.11338,.00852,6.16789,.00178,.03101-2.72098-.03775-5.44449,.03616-8.16547,.67475,.9418,1.29003,1.92548,1.97822,2.85773,1.1507,1.78692,2.45319,3.47557,3.55938,5.29017,2.06974,.05455,4.13924-.00184,6.20973,.03179,.02198-.25775,.04448-.5145,.04448-.77297-.03024-5.23795,.02457-10.47668-.02845-15.71385-2.04776-.01603-4.09321,.00414-6.13941-.00829-.01577,2.73594,.01605,5.47372-.01758,8.20736-1.90169-2.70521-3.69871-5.49078-5.64485-8.16211-2.05138-.09307-4.11415-.02771-6.16971-.03101Z"/></svg>